<?xml version="1.0" encoding="utf-8"?>
<svg width="198px" height="1440px" viewBox="0 0 198 1440" version="1.1" xmlns="http://www.w3.org/2000/svg">
  <title>wave-1</title>
  <g id="wave-1" stroke="none" stroke-width="1" fill="none" fill-rule="evenodd">
    <g id="wave" transform="translate(99.000000, 720.000000) scale(1, -1) rotate(90.000000) translate(-99.000000, -720.000000) translate(-621.000000, 621.000000)" fill="#FFFFFF" fill-rule="nonzero">
      <path d="M 0 6.166 L 79.851 38.091 C 159.702 70.017 319.403 133.868 479.105 123.193 C 638.806 112.917 798.508 27.117 958.209 6.166 C 1117.911 -14.785 1275.169 18.109 1357.583 25.38 C 1386.137 27.899 1436.063 40.472 1440.728 -7.118 C 1440.613 3.725 1441.007 211.148 1441.231 189.996 L 1357.463 197.719 C 1277.612 197.719 1117.911 197.719 958.209 197.719 C 798.508 197.719 638.806 197.719 479.105 197.719 C 319.403 197.719 159.702 197.719 79.851 197.719 L 0 197.719 L 0 6.166 Z" id="Path" style=""/>
    </g>
  </g>
</svg>